<?xml version="1.0" encoding="UTF-8" standalone="yes"?><svg xmlns="http://www.w3.org/2000/svg" xmlns:xlink="http://www.w3.org/1999/xlink" height="412px" style="width:283px;height:412px;" version="1.1" viewBox="0 0 283 412" width="283px"><defs><filter height="300%" id="f1" width="300%" x="-1" y="-1"><feGaussianBlur result="blurOut" stdDeviation="2.0"/><feColorMatrix in="blurOut" result="blurOut2" type="matrix" values="0 0 0 0 0 0 0 0 0 0 0 0 0 0 0 0 0 0 .4 0"/><feOffset dx="4.0" dy="4.0" in="blurOut2" result="blurOut3"/><feBlend in="SourceGraphic" in2="blurOut3" mode="normal"/></filter></defs><g><ellipse cx="141" cy="18" fill="#000000" filter="url(#f1)" rx="10" ry="10" style="stroke: none; stroke-width: 1.0;"/><rect fill="#FEFECE" filter="url(#f1)" height="317.6094" rx="12.5" ry="12.5" style="stroke: #A80036; stroke-width: 1.5;" width="270" x="6" y="88"/><rect fill="#FFFFFF" height="284" rx="12.5" ry="12.5" style="stroke: #FFFFFF; stroke-width: 1.0;" width="264" x="9" y="118.6094"/><line style="stroke: #A80036; stroke-width: 1.5;" x1="6" x2="276" y1="115.6094" y2="115.6094"/><text fill="#000000" font-family="sans-serif" font-size="14" lengthAdjust="spacingAndGlyphs" textLength="41" x="120.5" y="107.5332">Button</text><ellipse cx="84.2227" cy="138.6094" fill="#000000" filter="url(#f1)" rx="10" ry="10" style="stroke: none; stroke-width: 1.0;"/><rect fill="#FEFECE" filter="url(#f1)" height="50" rx="12.5" ry="12.5" style="stroke: #A80036; stroke-width: 1.5;" width="93" x="37.9727" y="186.6094"/><line style="stroke: #A80036; stroke-width: 1.5;" x1="37.9727" x2="130.9727" y1="214.2188" y2="214.2188"/><text fill="#000000" font-family="sans-serif" font-size="14" lengthAdjust="spacingAndGlyphs" textLength="73" x="47.9727" y="206.1426">RELEASED</text><rect fill="#FEFECE" filter="url(#f1)" height="50" rx="12.5" ry="12.5" style="stroke: #A80036; stroke-width: 1.5;" width="85" x="41.9727" y="340.6094"/><line style="stroke: #A80036; stroke-width: 1.5;" x1="41.9727" x2="126.9727" y1="368.2188" y2="368.2188"/><text fill="#000000" font-family="sans-serif" font-size="14" lengthAdjust="spacingAndGlyphs" textLength="65" x="51.9727" y="360.1426">PRESSED</text><path d="M41.5548,236.6934 C35.7754,241.8364 30.6598,247.8074 27.2227,254.6094 C13.5925,281.5834 13.5925,295.6353 27.2227,322.6094 C29.9512,328.0092 33.7375,332.8851 38.074,337.2391 " fill="none" style="stroke: #A80036; stroke-width: 1.0;"/><polygon fill="#A80036" points="41.835,340.7737,38.0159,331.6954,38.1915,337.3496,32.5373,337.5251,41.835,340.7737" style="stroke: #A80036; stroke-width: 1.0;"/><text fill="#000000" font-family="sans-serif" font-size="13" lengthAdjust="spacingAndGlyphs" textLength="91" x="28.2227" y="269.1045">25ms_tic?clock</text><text fill="#000000" font-family="sans-serif" font-size="13" lengthAdjust="spacingAndGlyphs" textLength="81" x="33.2227" y="285.4561">if is_pressed()</text><text fill="#000000" font-family="sans-serif" font-size="13" lengthAdjust="spacingAndGlyphs" textLength="77" x="35.2227" y="301.8076">do evt!press()</text><text fill="#000000" font-family="sans-serif" font-size="13" lengthAdjust="spacingAndGlyphs" textLength="0" x="75.7227" y="318.1592"/><path d="M110.6303,340.3908 C114.964,334.9968 118.819,328.973 121.223,322.6094 C131.9,294.3362 131.9,282.8824 121.223,254.6094 C119.42,249.8364 116.801,245.2554 113.7757,240.9874 " fill="none" style="stroke: #A80036; stroke-width: 1.0;"/><polygon fill="#A80036" points="110.6303,236.8284,112.8682,246.4196,113.6461,240.8165,119.2492,241.5943,110.6303,236.8284" style="stroke: #A80036; stroke-width: 1.0;"/><text fill="#000000" font-family="sans-serif" font-size="13" lengthAdjust="spacingAndGlyphs" textLength="91" x="140.223" y="269.1045">25ms_tic?clock</text><text fill="#000000" font-family="sans-serif" font-size="13" lengthAdjust="spacingAndGlyphs" textLength="111" x="130.223" y="285.4561">if  not(is_pressed())</text><text fill="#000000" font-family="sans-serif" font-size="13" lengthAdjust="spacingAndGlyphs" textLength="87" x="142.223" y="301.8076">do evt!release()</text><text fill="#000000" font-family="sans-serif" font-size="13" lengthAdjust="spacingAndGlyphs" textLength="0" x="187.723" y="318.1592"/><path d="M84.2227,148.8914 C84.2227,157.1054 84.2227,169.5514 84.2227,181.1204 " fill="none" style="stroke: #A80036; stroke-width: 1.0;"/><polygon fill="#A80036" points="84.2227,186.3554,88.2227,177.3554,84.2227,181.3554,80.2227,177.3554,84.2227,186.3554" style="stroke: #A80036; stroke-width: 1.0;"/><path d="M141,28.18 C141,39.215 141,59.221 141,82.792 " fill="none" style="stroke: #A80036; stroke-width: 1.0;"/><polygon fill="#A80036" points="141,87.874,145,78.874,141,82.874,137,78.874,141,87.874" style="stroke: #A80036; stroke-width: 1.0;"/></g></svg>