<?xml version="1.0" encoding="UTF-8" standalone="yes"?><svg xmlns="http://www.w3.org/2000/svg" xmlns:xlink="http://www.w3.org/1999/xlink" height="370px" style="width:198px;height:370px;" version="1.1" viewBox="0 0 198 370" width="198px"><defs><filter height="300%" id="f1" width="300%" x="-1" y="-1"><feGaussianBlur result="blurOut" stdDeviation="2.0"/><feColorMatrix in="blurOut" result="blurOut2" type="matrix" values="0 0 0 0 0 0 0 0 0 0 0 0 0 0 0 0 0 0 .4 0"/><feOffset dx="4.0" dy="4.0" in="blurOut2" result="blurOut3"/><feBlend in="SourceGraphic" in2="blurOut3" mode="normal"/></filter></defs><g><ellipse cx="99" cy="18" fill="#000000" filter="url(#f1)" rx="10" ry="10" style="stroke: none; stroke-width: 1.0;"/><rect fill="#FEFECE" filter="url(#f1)" height="274.7969" rx="12.5" ry="12.5" style="stroke: #A80036; stroke-width: 1.5;" width="185.5" x="6" y="88.5"/><rect fill="#FFFFFF" height="206" rx="12.5" ry="12.5" style="stroke: #FFFFFF; stroke-width: 1.0;" width="179.5" x="9" y="154.2969"/><line style="stroke: #A80036; stroke-width: 1.5;" x1="6" x2="191.5" y1="151.2969" y2="151.2969"/><line style="stroke: #A80036; stroke-width: 1.5;" x1="6" x2="191.5" y1="116.1094" y2="116.1094"/><text fill="#000000" font-family="sans-serif" font-size="14" lengthAdjust="spacingAndGlyphs" textLength="69" x="64.25" y="108.0332">TestButton</text><text fill="#000000" font-family="sans-serif" font-size="12" lengthAdjust="spacingAndGlyphs" textLength="109" x="11" y="128.5664">entry / print "READY!</text><text fill="#000000" font-family="sans-serif" font-size="12" lengthAdjust="spacingAndGlyphs" textLength="4" x="11" y="143.6602">"</text><ellipse cx="85.25" cy="174.2969" fill="#000000" filter="url(#f1)" rx="10" ry="10" style="stroke: none; stroke-width: 1.0;"/><rect fill="#FEFECE" filter="url(#f1)" height="128.1719" rx="12.5" ry="12.5" style="stroke: #A80036; stroke-width: 1.5;" width="137" x="17" y="220.2969"/><line style="stroke: #A80036; stroke-width: 1.5;" x1="17" x2="154" y1="247.9063" y2="247.9063"/><text fill="#000000" font-family="sans-serif" font-size="14" lengthAdjust="spacingAndGlyphs" textLength="47" x="62" y="239.8301">Waiting</text><text fill="#000000" font-family="sans-serif" font-size="12" lengthAdjust="spacingAndGlyphs" textLength="100" x="22" y="265.3633">internal press?but</text><text fill="#000000" font-family="sans-serif" font-size="12" lengthAdjust="spacingAndGlyphs" textLength="103" x="22" y="280.457">do print ''PRESS\n''</text><text fill="#000000" font-family="sans-serif" font-size="12" lengthAdjust="spacingAndGlyphs" textLength="0" x="25" y="295.5508"/><text fill="#000000" font-family="sans-serif" font-size="12" lengthAdjust="spacingAndGlyphs" textLength="110" x="22" y="310.6445">internal release?but</text><text fill="#000000" font-family="sans-serif" font-size="12" lengthAdjust="spacingAndGlyphs" textLength="117" x="22" y="325.7383">do print ''RELEASE\n''</text><text fill="#000000" font-family="sans-serif" font-size="12" lengthAdjust="spacingAndGlyphs" textLength="0" x="25" y="340.832"/><path d="M85.25,184.5049 C85.25,191.8699 85.25,202.9359 85.25,215.0309 " fill="none" style="stroke: #A80036; stroke-width: 1.0;"/><polygon fill="#A80036" points="85.25,220.2699,89.25,211.2699,85.25,215.2699,81.25,211.2699,85.25,220.2699" style="stroke: #A80036; stroke-width: 1.0;"/><path d="M99,28.117 C99,39.312 99,59.745 99,83.344 " fill="none" style="stroke: #A80036; stroke-width: 1.0;"/><polygon fill="#A80036" points="99,88.426,103,79.426,99,83.426,95,79.426,99,88.426" style="stroke: #A80036; stroke-width: 1.0;"/></g></svg>