<?xml version="1.0" encoding="UTF-8" standalone="yes"?><svg xmlns="http://www.w3.org/2000/svg" xmlns:xlink="http://www.w3.org/1999/xlink" height="280px" style="width:276px;height:280px;" version="1.1" viewBox="0 0 276 280" width="276px"><defs><filter height="300%" id="f1" width="300%" x="-1" y="-1"><feGaussianBlur result="blurOut" stdDeviation="2.0"/><feColorMatrix in="blurOut" result="blurOut2" type="matrix" values="0 0 0 0 0 0 0 0 0 0 0 0 0 0 0 0 0 0 .4 0"/><feOffset dx="4.0" dy="4.0" in="blurOut2" result="blurOut3"/><feBlend in="SourceGraphic" in2="blurOut3" mode="normal"/></filter></defs><g><ellipse cx="137.25" cy="18" fill="#000000" filter="url(#f1)" rx="10" ry="10" style="stroke: none; stroke-width: 1.0;"/><rect fill="#FEFECE" filter="url(#f1)" height="185.7031" rx="12.5" ry="12.5" style="stroke: #A80036; stroke-width: 1.5;" width="263" x="6" y="88"/><rect fill="#FFFFFF" height="132" rx="12.5" ry="12.5" style="stroke: #FFFFFF; stroke-width: 1.0;" width="257" x="9" y="138.7031"/><line style="stroke: #A80036; stroke-width: 1.5;" x1="6" x2="269" y1="135.7031" y2="135.7031"/><line style="stroke: #A80036; stroke-width: 1.5;" x1="6" x2="269" y1="115.6094" y2="115.6094"/><text fill="#000000" font-family="sans-serif" font-size="14" lengthAdjust="spacingAndGlyphs" textLength="68" x="103.5" y="107.5332">HelloWorld</text><text fill="#000000" font-family="sans-serif" font-size="12" lengthAdjust="spacingAndGlyphs" textLength="144" x="11" y="128.0664">entry / 'Serial.begin(9600);'</text><ellipse cx="124" cy="158.7031" fill="#000000" filter="url(#f1)" rx="10" ry="10" style="stroke: none; stroke-width: 1.0;"/><rect fill="#FEFECE" filter="url(#f1)" height="52.7031" rx="12.5" ry="12.5" style="stroke: #A80036; stroke-width: 1.5;" width="214" x="17" y="205.2031"/><line style="stroke: #A80036; stroke-width: 1.5;" x1="17" x2="231" y1="232.8125" y2="232.8125"/><text fill="#000000" font-family="sans-serif" font-size="14" lengthAdjust="spacingAndGlyphs" textLength="62" x="93" y="224.7363">Greetings</text><text fill="#000000" font-family="sans-serif" font-size="12" lengthAdjust="spacingAndGlyphs" textLength="194" x="22" y="250.2695">entry / 'Serial.println("Hello World!");'</text><path d="M124,168.9851 C124,176.8734 124,188.664 124,199.8326 " fill="none" style="stroke: #A80036; stroke-width: 1.0;"/><polygon fill="#A80036" points="124,204.9042,128,195.9042,124,199.9042,120,195.9042,124,204.9042" style="stroke: #A80036; stroke-width: 1.0;"/><path d="M137.25,28.117 C137.25,39.497 137.25,60.226 137.25,82.788 " fill="none" style="stroke: #A80036; stroke-width: 1.0;"/><polygon fill="#A80036" points="137.25,87.935,141.25,78.935,137.25,82.935,133.25,78.935,137.25,87.935" style="stroke: #A80036; stroke-width: 1.0;"/></g></svg>