<?xml version="1.0" encoding="UTF-8" standalone="yes"?><svg xmlns="http://www.w3.org/2000/svg" xmlns:xlink="http://www.w3.org/1999/xlink" height="392px" style="width:242px;height:392px;" version="1.1" viewBox="0 0 242 392" width="242px"><defs><filter height="300%" id="f1" width="300%" x="-1" y="-1"><feGaussianBlur result="blurOut" stdDeviation="2.0"/><feColorMatrix in="blurOut" result="blurOut2" type="matrix" values="0 0 0 0 0 0 0 0 0 0 0 0 0 0 0 0 0 0 .4 0"/><feOffset dx="4.0" dy="4.0" in="blurOut2" result="blurOut3"/><feBlend in="SourceGraphic" in2="blurOut3" mode="normal"/></filter></defs><g><ellipse cx="121" cy="18" fill="#000000" filter="url(#f1)" rx="10" ry="10" style="stroke: none; stroke-width: 1.0;"/><rect fill="#FEFECE" filter="url(#f1)" height="297.7031" rx="12.5" ry="12.5" style="stroke: #A80036; stroke-width: 1.5;" width="229.5" x="6" y="88"/><rect fill="#FFFFFF" height="244" rx="12.5" ry="12.5" style="stroke: #FFFFFF; stroke-width: 1.0;" width="223.5" x="9" y="138.7031"/><line style="stroke: #A80036; stroke-width: 1.5;" x1="6" x2="235.5" y1="135.7031" y2="135.7031"/><line style="stroke: #A80036; stroke-width: 1.5;" x1="6" x2="235.5" y1="115.6094" y2="115.6094"/><text fill="#000000" font-family="sans-serif" font-size="14" lengthAdjust="spacingAndGlyphs" textLength="38" x="101.75" y="107.5332">Blink1</text><text fill="#000000" font-family="sans-serif" font-size="12" lengthAdjust="spacingAndGlyphs" textLength="166" x="11" y="128.0664">entry / 'pinMode(12, OUTPUT);'</text><ellipse cx="107.25" cy="158.7031" fill="#000000" filter="url(#f1)" rx="10" ry="10" style="stroke: none; stroke-width: 1.0;"/><rect fill="#FEFECE" filter="url(#f1)" height="52.7031" rx="12.5" ry="12.5" style="stroke: #A80036; stroke-width: 1.5;" width="178" x="18.25" y="207.2031"/><line style="stroke: #A80036; stroke-width: 1.5;" x1="18.25" x2="196.25" y1="234.8125" y2="234.8125"/><text fill="#000000" font-family="sans-serif" font-size="14" lengthAdjust="spacingAndGlyphs" textLength="29" x="92.75" y="226.7363">OFF</text><text fill="#000000" font-family="sans-serif" font-size="12" lengthAdjust="spacingAndGlyphs" textLength="158" x="23.25" y="252.2695">entry / 'digitalWrite(12, LOW);'</text><rect fill="#FEFECE" filter="url(#f1)" height="52.7031" rx="12.5" ry="12.5" style="stroke: #A80036; stroke-width: 1.5;" width="181" x="17" y="317.2031"/><line style="stroke: #A80036; stroke-width: 1.5;" x1="17" x2="198" y1="344.8125" y2="344.8125"/><text fill="#000000" font-family="sans-serif" font-size="14" lengthAdjust="spacingAndGlyphs" textLength="20" x="97.5" y="336.7363">ON</text><text fill="#000000" font-family="sans-serif" font-size="12" lengthAdjust="spacingAndGlyphs" textLength="161" x="22" y="362.2695">entry / 'digitalWrite(12, HIGH);'</text><path d="M79.7412,260.6311 C75.4463,266.1501 71.6433,272.2704 69.25,278.7031 C64.8744,290.4641 69.2864,302.5116 76.4487,312.9359 " fill="none" style="stroke: #A80036; stroke-width: 1.0;"/><polygon fill="#A80036" points="79.4322,316.9969,77.327,307.3757,76.4718,312.9675,70.88,312.1123,79.4322,316.9969" style="stroke: #A80036; stroke-width: 1.0;"/><text fill="#000000" font-family="sans-serif" font-size="13" lengthAdjust="spacingAndGlyphs" textLength="52" x="70.25" y="293.6982">tic?clock</text><path d="M118.953,317.1088 C121.147,311.185 123.109,304.8215 124.25,298.7031 C125.879,289.9648 125.879,287.4414 124.25,278.7031 C123.412,274.2099 122.132,269.5841 120.641,265.0981 " fill="none" style="stroke: #A80036; stroke-width: 1.0;"/><polygon fill="#A80036" points="118.953,260.2971,118.1674,270.1146,120.6128,265.0136,125.7138,267.459,118.953,260.2971" style="stroke: #A80036; stroke-width: 1.0;"/><text fill="#000000" font-family="sans-serif" font-size="13" lengthAdjust="spacingAndGlyphs" textLength="52" x="126.25" y="293.6982">tic?clock</text><path d="M107.25,168.9491 C107.25,177.2741 107.25,189.9941 107.25,201.8891 " fill="none" style="stroke: #A80036; stroke-width: 1.0;"/><polygon fill="#A80036" points="107.25,206.9211,111.25,197.9211,107.25,201.9211,103.25,197.9211,107.25,206.9211" style="stroke: #A80036; stroke-width: 1.0;"/><path d="M121,28.048 C121,39.094 121,59.24 121,82.794 " fill="none" style="stroke: #A80036; stroke-width: 1.0;"/><polygon fill="#A80036" points="121,87.869,125,78.869,121,82.869,117,78.869,121,87.869" style="stroke: #A80036; stroke-width: 1.0;"/></g></svg>