<?xml version="1.0" encoding="UTF-8" standalone="yes"?><svg xmlns="http://www.w3.org/2000/svg" xmlns:xlink="http://www.w3.org/1999/xlink" height="556px" style="width:641px;height:556px;" version="1.1" viewBox="0 0 641 556" width="641px"><defs><filter height="300%" id="f1" width="300%" x="-1" y="-1"><feGaussianBlur result="blurOut" stdDeviation="2.0"/><feColorMatrix in="blurOut" result="blurOut2" type="matrix" values="0 0 0 0 0 0 0 0 0 0 0 0 0 0 0 0 0 0 .4 0"/><feOffset dx="4.0" dy="4.0" in="blurOut2" result="blurOut3"/><feBlend in="SourceGraphic" in2="blurOut3" mode="normal"/></filter></defs><g><ellipse cx="320" cy="18" fill="#000000" filter="url(#f1)" rx="10" ry="10" style="stroke: none; stroke-width: 1.0;"/><rect fill="#FEFECE" filter="url(#f1)" height="461.6094" rx="12.5" ry="12.5" style="stroke: #A80036; stroke-width: 1.5;" width="628" x="6" y="88"/><rect fill="#FFFFFF" height="428" rx="12.5" ry="12.5" style="stroke: #FFFFFF; stroke-width: 1.0;" width="622" x="9" y="118.6094"/><line style="stroke: #A80036; stroke-width: 1.5;" x1="6" x2="634" y1="115.6094" y2="115.6094"/><text fill="#000000" font-family="sans-serif" font-size="14" lengthAdjust="spacingAndGlyphs" textLength="91" x="274.5" y="107.5332">SoftButtonImpl</text><ellipse cx="214.287" cy="138.6094" fill="#000000" filter="url(#f1)" rx="10" ry="10" style="stroke: none; stroke-width: 1.0;"/><rect fill="#FEFECE" filter="url(#f1)" height="50" rx="12.5" ry="12.5" style="stroke: #A80036; stroke-width: 1.5;" width="50" x="189.287" y="186.6094"/><line style="stroke: #A80036; stroke-width: 1.5;" x1="189.287" x2="239.287" y1="214.2188" y2="214.2188"/><text fill="#000000" font-family="sans-serif" font-size="14" lengthAdjust="spacingAndGlyphs" textLength="22" x="203.287" y="206.1426">Idle</text><rect fill="#FEFECE" filter="url(#f1)" height="52.7031" rx="12.5" ry="12.5" style="stroke: #A80036; stroke-width: 1.5;" width="224" x="17.2865" y="325.1094"/><line style="stroke: #A80036; stroke-width: 1.5;" x1="17.2865" x2="241.2865" y1="352.7188" y2="352.7188"/><text fill="#000000" font-family="sans-serif" font-size="14" lengthAdjust="spacingAndGlyphs" textLength="52" x="103.2865" y="344.6426">Pressed</text><text fill="#000000" font-family="sans-serif" font-size="12" lengthAdjust="spacingAndGlyphs" textLength="204" x="22.2865" y="370.1758">entry / Timer!timer_start(0long_delay)</text><rect fill="#FEFECE" filter="url(#f1)" height="67.7969" rx="12.5" ry="12.5" style="stroke: #A80036; stroke-width: 1.5;" width="249" x="176.037" y="466.6094"/><line style="stroke: #A80036; stroke-width: 1.5;" x1="176.037" x2="425.037" y1="494.2188" y2="494.2188"/><text fill="#000000" font-family="sans-serif" font-size="14" lengthAdjust="spacingAndGlyphs" textLength="60" x="270.537" y="486.1426">Released</text><text fill="#000000" font-family="sans-serif" font-size="12" lengthAdjust="spacingAndGlyphs" textLength="218" x="181.037" y="511.6758">entry / Timer!timer_start(0double_delay)</text><text fill="#000000" font-family="sans-serif" font-size="12" lengthAdjust="spacingAndGlyphs" textLength="229" x="181.037" y="526.7695">Exit / ExitActions() = Timer!timer_cancel(0)</text><path d="M189.171,214.4644 C142.95,218.4564 47.2979,229.6044 27.2865,254.6094 C12.8457,272.6534 14.5869,287.3004 27.2865,306.6094 C31.0867,312.3874 35.8237,317.4104 41.1603,321.7754 " fill="none" style="stroke: #A80036; stroke-width: 1.0;"/><polygon fill="#A80036" points="45.3527,324.9874,40.6416,316.3383,41.3838,321.9463,35.7759,322.6885,45.3527,324.9874" style="stroke: #A80036; stroke-width: 1.0;"/><text fill="#000000" font-family="sans-serif" font-size="13" lengthAdjust="spacingAndGlyphs" textLength="77" x="28.2865" y="285.6045">press?Button</text><path d="M122.688,324.9354 C118.918,304.3434 117.209,275.5254 130.287,254.6094 C142.059,235.7804 165.081,225.0984 184.05,219.2244 " fill="none" style="stroke: #A80036; stroke-width: 1.0;"/><polygon fill="#A80036" points="189.28,217.6924,179.5185,216.3839,184.4817,219.098,181.7675,224.0612,189.28,217.6924" style="stroke: #A80036; stroke-width: 1.0;"/><text fill="#000000" font-family="sans-serif" font-size="13" lengthAdjust="spacingAndGlyphs" textLength="118" x="148.787" y="269.1045">timer_timeout?Timer</text><text fill="#000000" font-family="sans-serif" font-size="13" lengthAdjust="spacingAndGlyphs" textLength="153" x="131.287" y="285.4561">do SoftButton!long_press()</text><text fill="#000000" font-family="sans-serif" font-size="13" lengthAdjust="spacingAndGlyphs" textLength="0" x="209.787" y="301.8076"/><path d="M125.482,378.3814 C123.847,399.5904 125.203,429.2164 141.287,448.6094 C149.619,458.6559 159.938,466.7461 171.288,473.2573 " fill="none" style="stroke: #A80036; stroke-width: 1.0;"/><polygon fill="#A80036" points="175.86,475.7677,169.8951,467.9306,171.4769,473.3618,166.0457,474.9436,175.86,475.7677" style="stroke: #A80036; stroke-width: 1.0;"/><text fill="#000000" font-family="sans-serif" font-size="13" lengthAdjust="spacingAndGlyphs" textLength="87" x="169.787" y="411.1045">release?Button</text><text fill="#000000" font-family="sans-serif" font-size="13" lengthAdjust="spacingAndGlyphs" textLength="142" x="142.287" y="427.4561">do Timer!timer_cancel(0)</text><text fill="#000000" font-family="sans-serif" font-size="13" lengthAdjust="spacingAndGlyphs" textLength="0" x="215.287" y="443.8076"/><path d="M302.171,466.4954 C304.891,407.9814 307.494,289.2074 286.287,254.6094 C276.828,239.1794 259.428,228.8014 244.103,222.2224 " fill="none" style="stroke: #A80036; stroke-width: 1.0;"/><polygon fill="#A80036" points="239.424,220.3014,246.2312,227.4191,244.0495,222.1999,249.2688,220.0182,239.424,220.3014" style="stroke: #A80036; stroke-width: 1.0;"/><text fill="#000000" font-family="sans-serif" font-size="13" lengthAdjust="spacingAndGlyphs" textLength="118" x="304.287" y="340.1045">timer_timeout?Timer</text><text fill="#000000" font-family="sans-serif" font-size="13" lengthAdjust="spacingAndGlyphs" textLength="117" x="304.787" y="356.4561">do SoftButton!click()</text><text fill="#000000" font-family="sans-serif" font-size="13" lengthAdjust="spacingAndGlyphs" textLength="0" x="365.287" y="372.8076"/><path d="M353.076,466.545 C400.564,432.4024 458.564,376.8894 428.287,324.6094 C389.152,257.0374 293.721,228.5084 244.599,217.9764 " fill="none" style="stroke: #A80036; stroke-width: 1.0;"/><polygon fill="#A80036" points="239.419,216.8954,247.4136,222.6474,244.3138,217.9155,249.0458,214.8157,239.419,216.8954" style="stroke: #A80036; stroke-width: 1.0;"/><text fill="#000000" font-family="sans-serif" font-size="13" lengthAdjust="spacingAndGlyphs" textLength="77" x="479.787" y="340.1045">press?Button</text><text fill="#000000" font-family="sans-serif" font-size="13" lengthAdjust="spacingAndGlyphs" textLength="162" x="437.287" y="356.4561">do SoftButton!double_click()</text><text fill="#000000" font-family="sans-serif" font-size="13" lengthAdjust="spacingAndGlyphs" textLength="0" x="520.287" y="372.8076"/><path d="M214.287,148.8914 C214.287,157.1054 214.287,169.5514 214.287,181.1204 " fill="none" style="stroke: #A80036; stroke-width: 1.0;"/><polygon fill="#A80036" points="214.287,186.3554,218.287,177.3554,214.287,181.3554,210.287,177.3554,214.287,186.3554" style="stroke: #A80036; stroke-width: 1.0;"/><path d="M320,28.276 C320,39.089 320,58.568 320,82.504 " fill="none" style="stroke: #A80036; stroke-width: 1.0;"/><polygon fill="#A80036" points="320,87.677,324,78.677,320,82.677,316,78.677,320,87.677" style="stroke: #A80036; stroke-width: 1.0;"/></g></svg>