<?xml version="1.0" encoding="UTF-8" standalone="yes"?><svg xmlns="http://www.w3.org/2000/svg" xmlns:xlink="http://www.w3.org/1999/xlink" height="354px" style="width:196px;height:354px;" version="1.1" viewBox="0 0 196 354" width="196px"><defs><filter height="300%" id="f1" width="300%" x="-1" y="-1"><feGaussianBlur result="blurOut" stdDeviation="2.0"/><feColorMatrix in="blurOut" result="blurOut2" type="matrix" values="0 0 0 0 0 0 0 0 0 0 0 0 0 0 0 0 0 0 .4 0"/><feOffset dx="4.0" dy="4.0" in="blurOut2" result="blurOut3"/><feBlend in="SourceGraphic" in2="blurOut3" mode="normal"/></filter></defs><g><ellipse cx="97.25" cy="18" fill="#000000" filter="url(#f1)" rx="10" ry="10" style="stroke: none; stroke-width: 1.0;"/><rect fill="#FEFECE" filter="url(#f1)" height="259.7031" rx="12.5" ry="12.5" style="stroke: #A80036; stroke-width: 1.5;" width="183" x="6" y="88"/><rect fill="#FFFFFF" height="206" rx="12.5" ry="12.5" style="stroke: #FFFFFF; stroke-width: 1.0;" width="177" x="9" y="138.7031"/><line style="stroke: #A80036; stroke-width: 1.5;" x1="6" x2="189" y1="135.7031" y2="135.7031"/><line style="stroke: #A80036; stroke-width: 1.5;" x1="6" x2="189" y1="115.6094" y2="115.6094"/><text fill="#000000" font-family="sans-serif" font-size="14" lengthAdjust="spacingAndGlyphs" textLength="27" x="84" y="107.5332">LED</text><text fill="#000000" font-family="sans-serif" font-size="12" lengthAdjust="spacingAndGlyphs" textLength="151" x="11" y="128.0664">entry / setDigitalOutput(PIN)</text><ellipse cx="84" cy="158.7031" fill="#000000" filter="url(#f1)" rx="10" ry="10" style="stroke: none; stroke-width: 1.0;"/><rect fill="#FEFECE" filter="url(#f1)" height="128.1719" rx="12.5" ry="12.5" style="stroke: #A80036; stroke-width: 1.5;" width="134" x="17" y="204.7031"/><line style="stroke: #A80036; stroke-width: 1.5;" x1="17" x2="151" y1="232.3125" y2="232.3125"/><text fill="#000000" font-family="sans-serif" font-size="14" lengthAdjust="spacingAndGlyphs" textLength="47" x="60.5" y="224.2363">READY</text><text fill="#000000" font-family="sans-serif" font-size="12" lengthAdjust="spacingAndGlyphs" textLength="109" x="22" y="249.7695">internal led_ON?ctrl</text><text fill="#000000" font-family="sans-serif" font-size="12" lengthAdjust="spacingAndGlyphs" textLength="113" x="22" y="264.8633">do digitalWrite(PIN1)</text><text fill="#000000" font-family="sans-serif" font-size="12" lengthAdjust="spacingAndGlyphs" textLength="0" x="25" y="279.957"/><text fill="#000000" font-family="sans-serif" font-size="12" lengthAdjust="spacingAndGlyphs" textLength="114" x="22" y="295.0508">internal led_OFF?ctrl</text><text fill="#000000" font-family="sans-serif" font-size="12" lengthAdjust="spacingAndGlyphs" textLength="113" x="22" y="310.1445">do digitalWrite(PIN0)</text><text fill="#000000" font-family="sans-serif" font-size="12" lengthAdjust="spacingAndGlyphs" textLength="0" x="25" y="325.2383"/><path d="M84,168.9111 C84,176.2761 84,187.3421 84,199.4371 " fill="none" style="stroke: #A80036; stroke-width: 1.0;"/><polygon fill="#A80036" points="84,204.6761,88,195.6761,84,199.6761,80,195.6761,84,204.6761" style="stroke: #A80036; stroke-width: 1.0;"/><path d="M97.25,28.022 C97.25,39.065 97.25,59.169 97.25,82.272 " fill="none" style="stroke: #A80036; stroke-width: 1.0;"/><polygon fill="#A80036" points="97.25,87.563,101.25,78.563,97.25,82.563,93.25,78.563,97.25,87.563" style="stroke: #A80036; stroke-width: 1.0;"/></g></svg>