<?xml version="1.0" encoding="UTF-8" standalone="yes"?><svg xmlns="http://www.w3.org/2000/svg" xmlns:xlink="http://www.w3.org/1999/xlink" height="460px" style="width:301px;height:460px;" version="1.1" viewBox="0 0 301 460" width="301px"><defs><filter height="300%" id="f1" width="300%" x="-1" y="-1"><feGaussianBlur result="blurOut" stdDeviation="2.0"/><feColorMatrix in="blurOut" result="blurOut2" type="matrix" values="0 0 0 0 0 0 0 0 0 0 0 0 0 0 0 0 0 0 .4 0"/><feOffset dx="4.0" dy="4.0" in="blurOut2" result="blurOut3"/><feBlend in="SourceGraphic" in2="blurOut3" mode="normal"/></filter></defs><g><ellipse cx="150" cy="18" fill="#000000" filter="url(#f1)" rx="10" ry="10" style="stroke: none; stroke-width: 1.0;"/><rect fill="#FEFECE" filter="url(#f1)" height="365.6094" rx="12.5" ry="12.5" style="stroke: #A80036; stroke-width: 1.5;" width="288.5" x="6" y="88"/><rect fill="#FFFFFF" height="332" rx="12.5" ry="12.5" style="stroke: #FFFFFF; stroke-width: 1.0;" width="282.5" x="9" y="118.6094"/><line style="stroke: #A80036; stroke-width: 1.5;" x1="6" x2="294.5" y1="115.6094" y2="115.6094"/><text fill="#000000" font-family="sans-serif" font-size="14" lengthAdjust="spacingAndGlyphs" textLength="30" x="135.25" y="107.5332">Blink</text><ellipse cx="93.25" cy="138.6094" fill="#000000" filter="url(#f1)" rx="10" ry="10" style="stroke: none; stroke-width: 1.0;"/><rect fill="#FEFECE" filter="url(#f1)" height="97.9844" rx="12.5" ry="12.5" style="stroke: #A80036; stroke-width: 1.5;" width="153" x="17" y="186.6094"/><line style="stroke: #A80036; stroke-width: 1.5;" x1="17" x2="170" y1="214.2188" y2="214.2188"/><text fill="#000000" font-family="sans-serif" font-size="14" lengthAdjust="spacingAndGlyphs" textLength="29" x="79" y="206.1426">OFF</text><text fill="#000000" font-family="sans-serif" font-size="12" lengthAdjust="spacingAndGlyphs" textLength="49" x="22" y="231.6758">entry / do</text><text fill="#000000" font-family="sans-serif" font-size="12" lengthAdjust="spacingAndGlyphs" textLength="75" x="22" y="246.7695">led!led_OFF()</text><text fill="#000000" font-family="sans-serif" font-size="12" lengthAdjust="spacingAndGlyphs" textLength="133" x="22" y="261.8633">timer!timer_start(01200)</text><text fill="#000000" font-family="sans-serif" font-size="12" lengthAdjust="spacingAndGlyphs" textLength="21" x="22" y="276.957">end</text><rect fill="#FEFECE" filter="url(#f1)" height="97.9844" rx="12.5" ry="12.5" style="stroke: #A80036; stroke-width: 1.5;" width="139" x="24" y="340.6094"/><line style="stroke: #A80036; stroke-width: 1.5;" x1="24" x2="163" y1="368.2188" y2="368.2188"/><text fill="#000000" font-family="sans-serif" font-size="14" lengthAdjust="spacingAndGlyphs" textLength="20" x="83.5" y="360.1426">ON</text><text fill="#000000" font-family="sans-serif" font-size="12" lengthAdjust="spacingAndGlyphs" textLength="49" x="29" y="385.6758">entry / do</text><text fill="#000000" font-family="sans-serif" font-size="12" lengthAdjust="spacingAndGlyphs" textLength="70" x="29" y="400.7695">led!led_ON()</text><text fill="#000000" font-family="sans-serif" font-size="12" lengthAdjust="spacingAndGlyphs" textLength="119" x="29" y="415.8633">timer!timer_start(050)</text><text fill="#000000" font-family="sans-serif" font-size="12" lengthAdjust="spacingAndGlyphs" textLength="21" x="29" y="430.957">end</text><path d="M34.6435,284.8484 C30.5055,290.4184 26.9205,296.3594 24.25,302.6094 C19.3141,314.1614 21.4431,325.4414 27.3392,335.8314 " fill="none" style="stroke: #A80036; stroke-width: 1.0;"/><polygon fill="#A80036" points="30.0871,340.2273,28.7066,330.4756,27.436,335.988,21.9237,334.7174,30.0871,340.2273" style="stroke: #A80036; stroke-width: 1.0;"/><text fill="#000000" font-family="sans-serif" font-size="13" lengthAdjust="spacingAndGlyphs" textLength="115" x="25.25" y="317.6045">timer_timeout?timer</text><path d="M137.243,340.6088 C143.477,328.6224 146.512,315.4984 142.25,302.6094 C140.77,298.1314 138.855,293.7104 136.642,289.4054 " fill="none" style="stroke: #A80036; stroke-width: 1.0;"/><polygon fill="#A80036" points="134.132,284.7824,134.9133,294.6002,136.5188,289.1759,141.943,290.7814,134.132,284.7824" style="stroke: #A80036; stroke-width: 1.0;"/><text fill="#000000" font-family="sans-serif" font-size="13" lengthAdjust="spacingAndGlyphs" textLength="115" x="144.25" y="317.6045">timer_timeout?timer</text><path d="M93.25,148.7184 C93.25,156.5904 93.25,168.6634 93.25,181.2934 " fill="none" style="stroke: #A80036; stroke-width: 1.0;"/><polygon fill="#A80036" points="93.25,186.3444,97.25,177.3444,93.25,181.3444,89.25,177.3444,93.25,186.3444" style="stroke: #A80036; stroke-width: 1.0;"/><path d="M150,28.231 C150,39.172 150,58.938 150,82.628 " fill="none" style="stroke: #A80036; stroke-width: 1.0;"/><polygon fill="#A80036" points="150,87.74,154,78.74,150,82.74,146,78.74,150,87.74" style="stroke: #A80036; stroke-width: 1.0;"/></g></svg>